<mxfile host="65bd71144e">
    <diagram id="e-_MM6MB5ETm_Tqdv13c" name="Page-1">
        <mxGraphModel dx="1360" dy="712" grid="1" gridSize="10" guides="1" tooltips="1" connect="1" arrows="1" fold="1" page="1" pageScale="1" pageWidth="850" pageHeight="1100" math="0" shadow="0">
            <root>
                <mxCell id="0"/>
                <mxCell id="1" parent="0"/>
                <mxCell id="2" value="start" style="strokeWidth=2;html=1;shape=mxgraph.flowchart.terminator;whiteSpace=wrap;fillColor=#CCFFCC;" vertex="1" parent="1">
                    <mxGeometry x="220" y="290" width="100" height="60" as="geometry"/>
                </mxCell>
                <mxCell id="6" value="" style="edgeStyle=none;html=1;" edge="1" parent="1" source="3" target="5">
                    <mxGeometry relative="1" as="geometry"/>
                </mxCell>
                <mxCell id="3" value="Library Management System&amp;nbsp;&lt;div&gt;&lt;span style=&quot;color: rgb(63, 63, 63); background-color: transparent;&quot;&gt;1) Manage Books&amp;nbsp;&lt;/span&gt;&lt;div&gt;2) Manage Members&amp;nbsp;&lt;/div&gt;&lt;div&gt;3) Manage Borrows/Returns&amp;nbsp;&lt;/div&gt;&lt;div&gt;4) Generate Report&amp;nbsp;&lt;/div&gt;&lt;div&gt;0) Exit&lt;/div&gt;&lt;/div&gt;" style="strokeWidth=2;html=1;shape=mxgraph.flowchart.display;whiteSpace=wrap;fillColor=#99FFFF;" vertex="1" parent="1">
                    <mxGeometry x="105" y="400" width="330" height="150" as="geometry"/>
                </mxCell>
                <mxCell id="12" value="" style="edgeStyle=none;html=1;" edge="1" parent="1" source="5" target="11">
                    <mxGeometry relative="1" as="geometry"/>
                </mxCell>
                <mxCell id="5" value="Select option:" style="html=1;strokeWidth=2;shape=manualInput;whiteSpace=wrap;rounded=1;size=26;arcSize=11;fillColor=#FFCCCC;" vertex="1" parent="1">
                    <mxGeometry x="205" y="630" width="130" height="60" as="geometry"/>
                </mxCell>
                <mxCell id="9" value="" style="edgeStyle=none;html=1;" edge="1" parent="1" target="3">
                    <mxGeometry relative="1" as="geometry">
                        <mxPoint x="270" y="350" as="sourcePoint"/>
                    </mxGeometry>
                </mxCell>
                <mxCell id="14" value="" style="edgeStyle=none;html=1;" edge="1" parent="1" source="11" target="13">
                    <mxGeometry relative="1" as="geometry"/>
                </mxCell>
                <mxCell id="20" value="" style="edgeStyle=none;html=1;" edge="1" parent="1" source="11" target="19">
                    <mxGeometry relative="1" as="geometry"/>
                </mxCell>
                <mxCell id="27" value="true" style="edgeLabel;html=1;align=center;verticalAlign=middle;resizable=0;points=[];" vertex="1" connectable="0" parent="20">
                    <mxGeometry x="-0.1977" y="-1" relative="1" as="geometry">
                        <mxPoint as="offset"/>
                    </mxGeometry>
                </mxCell>
                <mxCell id="11" value="if option == 1" style="strokeWidth=2;html=1;shape=mxgraph.flowchart.decision;whiteSpace=wrap;fillColor=#FFFFCC;" vertex="1" parent="1">
                    <mxGeometry x="220" y="730" width="100" height="100" as="geometry"/>
                </mxCell>
                <mxCell id="16" value="" style="edgeStyle=none;html=1;" edge="1" parent="1" source="13" target="15">
                    <mxGeometry relative="1" as="geometry"/>
                </mxCell>
                <mxCell id="22" value="" style="edgeStyle=none;html=1;" edge="1" parent="1" source="13" target="21">
                    <mxGeometry relative="1" as="geometry"/>
                </mxCell>
                <mxCell id="13" value="&lt;br&gt;&lt;span style=&quot;color: rgb(0, 0, 0); font-family: Helvetica; font-size: 12px; font-style: normal; font-variant-ligatures: normal; font-variant-caps: normal; font-weight: 400; letter-spacing: normal; orphans: 2; text-align: center; text-indent: 0px; text-transform: none; widows: 2; word-spacing: 0px; -webkit-text-stroke-width: 0px; white-space: normal; background-color: rgb(251, 251, 251); text-decoration-thickness: initial; text-decoration-style: initial; text-decoration-color: initial; float: none; display: inline !important;&quot;&gt;if option == 2&lt;/span&gt;&lt;br&gt;&lt;div&gt;&lt;span style=&quot;color: rgb(0, 0, 0); font-family: Helvetica; font-size: 12px; font-style: normal; font-variant-ligatures: normal; font-variant-caps: normal; font-weight: 400; letter-spacing: normal; orphans: 2; text-align: center; text-indent: 0px; text-transform: none; widows: 2; word-spacing: 0px; -webkit-text-stroke-width: 0px; white-space: normal; background-color: rgb(251, 251, 251); text-decoration-thickness: initial; text-decoration-style: initial; text-decoration-color: initial; float: none; display: inline !important;&quot;&gt;&lt;br&gt;&lt;/span&gt;&lt;/div&gt;" style="strokeWidth=2;html=1;shape=mxgraph.flowchart.decision;whiteSpace=wrap;fillColor=#FFFFCC;" vertex="1" parent="1">
                    <mxGeometry x="220" y="880" width="100" height="100" as="geometry"/>
                </mxCell>
                <mxCell id="18" value="" style="edgeStyle=none;html=1;" edge="1" parent="1" source="15" target="17">
                    <mxGeometry relative="1" as="geometry"/>
                </mxCell>
                <mxCell id="24" value="" style="edgeStyle=none;html=1;" edge="1" parent="1" source="15" target="23">
                    <mxGeometry relative="1" as="geometry"/>
                </mxCell>
                <mxCell id="15" value="&lt;br&gt;&lt;span style=&quot;color: rgb(0, 0, 0); font-family: Helvetica; font-size: 12px; font-style: normal; font-variant-ligatures: normal; font-variant-caps: normal; font-weight: 400; letter-spacing: normal; orphans: 2; text-align: center; text-indent: 0px; text-transform: none; widows: 2; word-spacing: 0px; -webkit-text-stroke-width: 0px; white-space: normal; background-color: rgb(251, 251, 251); text-decoration-thickness: initial; text-decoration-style: initial; text-decoration-color: initial; float: none; display: inline !important;&quot;&gt;if option == 3&lt;/span&gt;&lt;br&gt;&lt;div&gt;&lt;span style=&quot;color: rgb(0, 0, 0); font-family: Helvetica; font-size: 12px; font-style: normal; font-variant-ligatures: normal; font-variant-caps: normal; font-weight: 400; letter-spacing: normal; orphans: 2; text-align: center; text-indent: 0px; text-transform: none; widows: 2; word-spacing: 0px; -webkit-text-stroke-width: 0px; white-space: normal; background-color: rgb(251, 251, 251); text-decoration-thickness: initial; text-decoration-style: initial; text-decoration-color: initial; float: none; display: inline !important;&quot;&gt;&lt;br&gt;&lt;/span&gt;&lt;/div&gt;" style="strokeWidth=2;html=1;shape=mxgraph.flowchart.decision;whiteSpace=wrap;fillColor=#FFFFCC;" vertex="1" parent="1">
                    <mxGeometry x="220" y="1050" width="100" height="100" as="geometry"/>
                </mxCell>
                <mxCell id="26" value="" style="edgeStyle=none;html=1;" edge="1" parent="1" source="17">
                    <mxGeometry relative="1" as="geometry">
                        <mxPoint x="389.9999999999998" y="1250.0000000000002" as="targetPoint"/>
                    </mxGeometry>
                </mxCell>
                <mxCell id="31" value="" style="edgeStyle=none;html=1;" edge="1" parent="1" source="17" target="30">
                    <mxGeometry relative="1" as="geometry"/>
                </mxCell>
                <mxCell id="17" value="&lt;br&gt;&lt;span style=&quot;color: rgb(0, 0, 0); font-family: Helvetica; font-size: 12px; font-style: normal; font-variant-ligatures: normal; font-variant-caps: normal; font-weight: 400; letter-spacing: normal; orphans: 2; text-align: center; text-indent: 0px; text-transform: none; widows: 2; word-spacing: 0px; -webkit-text-stroke-width: 0px; white-space: normal; background-color: rgb(251, 251, 251); text-decoration-thickness: initial; text-decoration-style: initial; text-decoration-color: initial; float: none; display: inline !important;&quot;&gt;if option == 4&lt;/span&gt;&lt;div&gt;&lt;div&gt;&lt;span style=&quot;color: rgb(0, 0, 0); font-family: Helvetica; font-size: 12px; font-style: normal; font-variant-ligatures: normal; font-variant-caps: normal; font-weight: 400; letter-spacing: normal; orphans: 2; text-align: center; text-indent: 0px; text-transform: none; widows: 2; word-spacing: 0px; -webkit-text-stroke-width: 0px; white-space: normal; background-color: rgb(251, 251, 251); text-decoration-thickness: initial; text-decoration-style: initial; text-decoration-color: initial; float: none; display: inline !important;&quot;&gt;&lt;br&gt;&lt;/span&gt;&lt;/div&gt;&lt;/div&gt;" style="strokeWidth=2;html=1;shape=mxgraph.flowchart.decision;whiteSpace=wrap;fillColor=#FFFFCC;" vertex="1" parent="1">
                    <mxGeometry x="220" y="1200" width="100" height="100" as="geometry"/>
                </mxCell>
                <mxCell id="19" value="&lt;div style=&quot;color: rgb(51, 51, 51); background-color: rgb(250, 250, 250); font-family: Consolas, &amp;quot;Courier New&amp;quot;, monospace; font-size: 14px; line-height: 19px; white-space: pre;&quot;&gt;&lt;div style=&quot;color: rgb(51, 51, 51); line-height: 19px;&quot;&gt;&lt;span style=&quot;color: #998f2f;&quot;&gt;Manage Books&lt;/span&gt;&lt;/div&gt;&lt;/div&gt;" style="shape=process;whiteSpace=wrap;html=1;backgroundOutline=1;strokeWidth=2;fillColor=#CCFFE6;" vertex="1" parent="1">
                    <mxGeometry x="390" y="750" width="140" height="60" as="geometry"/>
                </mxCell>
                <mxCell id="21" value="&lt;div style=&quot;color: rgb(51, 51, 51); background-color: rgb(250, 250, 250); font-family: Consolas, &amp;quot;Courier New&amp;quot;, monospace; font-size: 14px; line-height: 19px; white-space: pre;&quot;&gt;&lt;div style=&quot;color: rgb(51, 51, 51); line-height: 19px;&quot;&gt;&lt;div style=&quot;color: rgb(51, 51, 51); line-height: 19px;&quot;&gt;&lt;span style=&quot;color: #998f2f;&quot;&gt;Manage Members&lt;/span&gt;&lt;/div&gt;&lt;/div&gt;&lt;/div&gt;" style="shape=process;whiteSpace=wrap;html=1;backgroundOutline=1;strokeWidth=2;fillColor=#CCFFE6;" vertex="1" parent="1">
                    <mxGeometry x="390" y="900" width="150" height="60" as="geometry"/>
                </mxCell>
                <mxCell id="23" value="&lt;div style=&quot;color: rgb(51, 51, 51); background-color: rgb(250, 250, 250); font-family: Consolas, &amp;quot;Courier New&amp;quot;, monospace; font-size: 14px; line-height: 19px; white-space: pre;&quot;&gt;&lt;div style=&quot;color: rgb(51, 51, 51); line-height: 19px;&quot;&gt;&lt;div style=&quot;color: rgb(51, 51, 51); line-height: 19px;&quot;&gt;&lt;span style=&quot;color: #998f2f;&quot;&gt;Manage Borrows/Returns&lt;/span&gt;&lt;/div&gt;&lt;/div&gt;&lt;/div&gt;" style="shape=process;whiteSpace=wrap;html=1;backgroundOutline=1;strokeWidth=2;fillColor=#CCFFE6;" vertex="1" parent="1">
                    <mxGeometry x="390" y="1070" width="240" height="60" as="geometry"/>
                </mxCell>
                <mxCell id="35" value="" style="edgeStyle=none;html=1;" edge="1" parent="1" source="30" target="34">
                    <mxGeometry relative="1" as="geometry"/>
                </mxCell>
                <mxCell id="41" value="true" style="edgeLabel;html=1;align=center;verticalAlign=middle;resizable=0;points=[];" vertex="1" connectable="0" parent="35">
                    <mxGeometry x="-0.2364" y="3" relative="1" as="geometry">
                        <mxPoint as="offset"/>
                    </mxGeometry>
                </mxCell>
                <mxCell id="30" value="if option == 0" style="strokeWidth=2;html=1;shape=mxgraph.flowchart.decision;whiteSpace=wrap;fillColor=#FFFFCC;" vertex="1" parent="1">
                    <mxGeometry x="220" y="1360" width="100" height="100" as="geometry"/>
                </mxCell>
                <mxCell id="34" value="stop" style="strokeWidth=2;html=1;shape=mxgraph.flowchart.terminator;whiteSpace=wrap;fillColor=#CCFFCC;" vertex="1" parent="1">
                    <mxGeometry x="410" y="1380" width="100" height="60" as="geometry"/>
                </mxCell>
                <mxCell id="37" value="true" style="edgeLabel;html=1;align=center;verticalAlign=middle;resizable=0;points=[];" vertex="1" connectable="0" parent="1">
                    <mxGeometry x="368.18181818181824" y="801" as="geometry">
                        <mxPoint x="-29" y="135" as="offset"/>
                    </mxGeometry>
                </mxCell>
                <mxCell id="38" value="true" style="edgeLabel;html=1;align=center;verticalAlign=middle;resizable=0;points=[];" vertex="1" connectable="0" parent="1">
                    <mxGeometry x="378.18181818181824" y="811" as="geometry">
                        <mxPoint x="-35" y="291" as="offset"/>
                    </mxGeometry>
                </mxCell>
                <mxCell id="39" value="true" style="edgeLabel;html=1;align=center;verticalAlign=middle;resizable=0;points=[];" vertex="1" connectable="0" parent="1">
                    <mxGeometry x="388.18181818181824" y="821" as="geometry">
                        <mxPoint x="-34" y="428" as="offset"/>
                    </mxGeometry>
                </mxCell>
                <mxCell id="70" value="" style="edgeStyle=none;html=1;" edge="1" parent="1" source="42" target="43">
                    <mxGeometry relative="1" as="geometry"/>
                </mxCell>
                <mxCell id="42" value="&lt;span style=&quot;color: rgb(153, 143, 47); font-family: Consolas, &amp;quot;Courier New&amp;quot;, monospace; font-size: 14px; white-space: pre; background-color: rgb(250, 250, 250);&quot;&gt;Manage Books&lt;/span&gt;" style="strokeWidth=2;html=1;shape=mxgraph.flowchart.terminator;whiteSpace=wrap;fillColor=#CCFFCC;" vertex="1" parent="1">
                    <mxGeometry x="745" y="290" width="180" height="60" as="geometry"/>
                </mxCell>
                <mxCell id="69" value="" style="edgeStyle=none;html=1;" edge="1" parent="1" source="43" target="45">
                    <mxGeometry relative="1" as="geometry"/>
                </mxCell>
                <mxCell id="43" value="&lt;div&gt;&lt;font color=&quot;#000000&quot;&gt;Manage Books Menu&lt;/font&gt;&lt;/div&gt;&lt;div&gt;&lt;font color=&quot;#000000&quot;&gt;1) Add Book&lt;/font&gt;&lt;/div&gt;&lt;div&gt;&lt;font color=&quot;#000000&quot;&gt;&amp;nbsp; 2) View Books&lt;/font&gt;&lt;/div&gt;&lt;div&gt;&lt;font color=&quot;#000000&quot;&gt;&amp;nbsp; 3) Update Book&lt;/font&gt;&lt;/div&gt;&lt;div&gt;&lt;font color=&quot;#000000&quot;&gt;&amp;nbsp; 4) Delete Book&lt;/font&gt;&lt;/div&gt;&lt;div&gt;&lt;font color=&quot;#000000&quot;&gt;&amp;nbsp; 0) Back to Main Menu&lt;/font&gt;&lt;/div&gt;" style="strokeWidth=2;html=1;shape=mxgraph.flowchart.display;whiteSpace=wrap;fillColor=#99FFFF;" vertex="1" parent="1">
                    <mxGeometry x="670" y="410" width="330" height="150" as="geometry"/>
                </mxCell>
                <mxCell id="44" value="" style="edgeStyle=none;html=1;" edge="1" parent="1" source="45" target="49">
                    <mxGeometry relative="1" as="geometry"/>
                </mxCell>
                <mxCell id="45" value="Select option:" style="html=1;strokeWidth=2;shape=manualInput;whiteSpace=wrap;rounded=1;size=26;arcSize=11;fillColor=#FFCCCC;" vertex="1" parent="1">
                    <mxGeometry x="770" y="620" width="130" height="60" as="geometry"/>
                </mxCell>
                <mxCell id="46" value="" style="edgeStyle=none;html=1;" edge="1" parent="1" source="49" target="52">
                    <mxGeometry relative="1" as="geometry"/>
                </mxCell>
                <mxCell id="47" value="" style="edgeStyle=none;html=1;" edge="1" parent="1" source="49">
                    <mxGeometry relative="1" as="geometry">
                        <mxPoint x="955" y="770" as="targetPoint"/>
                    </mxGeometry>
                </mxCell>
                <mxCell id="48" value="true" style="edgeLabel;html=1;align=center;verticalAlign=middle;resizable=0;points=[];" vertex="1" connectable="0" parent="47">
                    <mxGeometry x="-0.1977" y="-1" relative="1" as="geometry">
                        <mxPoint as="offset"/>
                    </mxGeometry>
                </mxCell>
                <mxCell id="49" value="if option == 1" style="strokeWidth=2;html=1;shape=mxgraph.flowchart.decision;whiteSpace=wrap;fillColor=#FFFFCC;" vertex="1" parent="1">
                    <mxGeometry x="785" y="720" width="100" height="100" as="geometry"/>
                </mxCell>
                <mxCell id="50" value="" style="edgeStyle=none;html=1;" edge="1" parent="1" source="52" target="55">
                    <mxGeometry relative="1" as="geometry"/>
                </mxCell>
                <mxCell id="51" value="" style="edgeStyle=none;html=1;" edge="1" parent="1" source="52">
                    <mxGeometry relative="1" as="geometry">
                        <mxPoint x="955" y="920" as="targetPoint"/>
                    </mxGeometry>
                </mxCell>
                <mxCell id="52" value="&lt;br&gt;&lt;span style=&quot;color: rgb(0, 0, 0); font-family: Helvetica; font-size: 12px; font-style: normal; font-variant-ligatures: normal; font-variant-caps: normal; font-weight: 400; letter-spacing: normal; orphans: 2; text-align: center; text-indent: 0px; text-transform: none; widows: 2; word-spacing: 0px; -webkit-text-stroke-width: 0px; white-space: normal; background-color: rgb(251, 251, 251); text-decoration-thickness: initial; text-decoration-style: initial; text-decoration-color: initial; float: none; display: inline !important;&quot;&gt;if option == 2&lt;/span&gt;&lt;br&gt;&lt;div&gt;&lt;span style=&quot;color: rgb(0, 0, 0); font-family: Helvetica; font-size: 12px; font-style: normal; font-variant-ligatures: normal; font-variant-caps: normal; font-weight: 400; letter-spacing: normal; orphans: 2; text-align: center; text-indent: 0px; text-transform: none; widows: 2; word-spacing: 0px; -webkit-text-stroke-width: 0px; white-space: normal; background-color: rgb(251, 251, 251); text-decoration-thickness: initial; text-decoration-style: initial; text-decoration-color: initial; float: none; display: inline !important;&quot;&gt;&lt;br&gt;&lt;/span&gt;&lt;/div&gt;" style="strokeWidth=2;html=1;shape=mxgraph.flowchart.decision;whiteSpace=wrap;fillColor=#FFFFCC;" vertex="1" parent="1">
                    <mxGeometry x="785" y="870" width="100" height="100" as="geometry"/>
                </mxCell>
                <mxCell id="53" value="" style="edgeStyle=none;html=1;" edge="1" parent="1" source="55" target="58">
                    <mxGeometry relative="1" as="geometry"/>
                </mxCell>
                <mxCell id="54" value="" style="edgeStyle=none;html=1;" edge="1" parent="1" source="55">
                    <mxGeometry relative="1" as="geometry">
                        <mxPoint x="955" y="1090" as="targetPoint"/>
                    </mxGeometry>
                </mxCell>
                <mxCell id="55" value="&lt;br&gt;&lt;span style=&quot;color: rgb(0, 0, 0); font-family: Helvetica; font-size: 12px; font-style: normal; font-variant-ligatures: normal; font-variant-caps: normal; font-weight: 400; letter-spacing: normal; orphans: 2; text-align: center; text-indent: 0px; text-transform: none; widows: 2; word-spacing: 0px; -webkit-text-stroke-width: 0px; white-space: normal; background-color: rgb(251, 251, 251); text-decoration-thickness: initial; text-decoration-style: initial; text-decoration-color: initial; float: none; display: inline !important;&quot;&gt;if option == 3&lt;/span&gt;&lt;br&gt;&lt;div&gt;&lt;span style=&quot;color: rgb(0, 0, 0); font-family: Helvetica; font-size: 12px; font-style: normal; font-variant-ligatures: normal; font-variant-caps: normal; font-weight: 400; letter-spacing: normal; orphans: 2; text-align: center; text-indent: 0px; text-transform: none; widows: 2; word-spacing: 0px; -webkit-text-stroke-width: 0px; white-space: normal; background-color: rgb(251, 251, 251); text-decoration-thickness: initial; text-decoration-style: initial; text-decoration-color: initial; float: none; display: inline !important;&quot;&gt;&lt;br&gt;&lt;/span&gt;&lt;/div&gt;" style="strokeWidth=2;html=1;shape=mxgraph.flowchart.decision;whiteSpace=wrap;fillColor=#FFFFCC;" vertex="1" parent="1">
                    <mxGeometry x="785" y="1040" width="100" height="100" as="geometry"/>
                </mxCell>
                <mxCell id="56" value="" style="edgeStyle=none;html=1;" edge="1" parent="1" source="58">
                    <mxGeometry relative="1" as="geometry">
                        <mxPoint x="955" y="1240" as="targetPoint"/>
                    </mxGeometry>
                </mxCell>
                <mxCell id="57" value="" style="edgeStyle=none;html=1;" edge="1" parent="1" source="58" target="64">
                    <mxGeometry relative="1" as="geometry"/>
                </mxCell>
                <mxCell id="58" value="&lt;br&gt;&lt;span style=&quot;color: rgb(0, 0, 0); font-family: Helvetica; font-size: 12px; font-style: normal; font-variant-ligatures: normal; font-variant-caps: normal; font-weight: 400; letter-spacing: normal; orphans: 2; text-align: center; text-indent: 0px; text-transform: none; widows: 2; word-spacing: 0px; -webkit-text-stroke-width: 0px; white-space: normal; background-color: rgb(251, 251, 251); text-decoration-thickness: initial; text-decoration-style: initial; text-decoration-color: initial; float: none; display: inline !important;&quot;&gt;if option == 4&lt;/span&gt;&lt;div&gt;&lt;div&gt;&lt;span style=&quot;color: rgb(0, 0, 0); font-family: Helvetica; font-size: 12px; font-style: normal; font-variant-ligatures: normal; font-variant-caps: normal; font-weight: 400; letter-spacing: normal; orphans: 2; text-align: center; text-indent: 0px; text-transform: none; widows: 2; word-spacing: 0px; -webkit-text-stroke-width: 0px; white-space: normal; background-color: rgb(251, 251, 251); text-decoration-thickness: initial; text-decoration-style: initial; text-decoration-color: initial; float: none; display: inline !important;&quot;&gt;&lt;br&gt;&lt;/span&gt;&lt;/div&gt;&lt;/div&gt;" style="strokeWidth=2;html=1;shape=mxgraph.flowchart.decision;whiteSpace=wrap;fillColor=#FFFFCC;" vertex="1" parent="1">
                    <mxGeometry x="785" y="1190" width="100" height="100" as="geometry"/>
                </mxCell>
                <mxCell id="62" value="" style="edgeStyle=none;html=1;" edge="1" parent="1" source="64" target="65">
                    <mxGeometry relative="1" as="geometry"/>
                </mxCell>
                <mxCell id="63" value="true" style="edgeLabel;html=1;align=center;verticalAlign=middle;resizable=0;points=[];" vertex="1" connectable="0" parent="62">
                    <mxGeometry x="-0.2364" y="3" relative="1" as="geometry">
                        <mxPoint as="offset"/>
                    </mxGeometry>
                </mxCell>
                <mxCell id="64" value="if option == 0" style="strokeWidth=2;html=1;shape=mxgraph.flowchart.decision;whiteSpace=wrap;fillColor=#FFFFCC;" vertex="1" parent="1">
                    <mxGeometry x="785" y="1350" width="100" height="100" as="geometry"/>
                </mxCell>
                <mxCell id="65" value="&lt;span style=&quot;color: rgb(0, 0, 0);&quot;&gt;back to main menu&lt;/span&gt;" style="strokeWidth=2;html=1;shape=mxgraph.flowchart.terminator;whiteSpace=wrap;fillColor=#CCFFCC;" vertex="1" parent="1">
                    <mxGeometry x="975" y="1370" width="115" height="60" as="geometry"/>
                </mxCell>
                <mxCell id="66" value="true" style="edgeLabel;html=1;align=center;verticalAlign=middle;resizable=0;points=[];" vertex="1" connectable="0" parent="1">
                    <mxGeometry x="933.1818181818182" y="791" as="geometry">
                        <mxPoint x="-29" y="135" as="offset"/>
                    </mxGeometry>
                </mxCell>
                <mxCell id="67" value="true" style="edgeLabel;html=1;align=center;verticalAlign=middle;resizable=0;points=[];" vertex="1" connectable="0" parent="1">
                    <mxGeometry x="943.1818181818182" y="801" as="geometry">
                        <mxPoint x="-35" y="291" as="offset"/>
                    </mxGeometry>
                </mxCell>
                <mxCell id="68" value="true" style="edgeLabel;html=1;align=center;verticalAlign=middle;resizable=0;points=[];" vertex="1" connectable="0" parent="1">
                    <mxGeometry x="953.1818181818182" y="811" as="geometry">
                        <mxPoint x="-34" y="428" as="offset"/>
                    </mxGeometry>
                </mxCell>
                <mxCell id="184" value="" style="edgeStyle=none;html=1;" edge="1" parent="1" source="71" target="179">
                    <mxGeometry relative="1" as="geometry"/>
                </mxCell>
                <mxCell id="71" value="add book" style="html=1;strokeWidth=2;shape=manualInput;whiteSpace=wrap;rounded=1;size=26;arcSize=11;fillColor=#FFCCCC;" vertex="1" parent="1">
                    <mxGeometry x="955" y="730" width="100" height="60" as="geometry"/>
                </mxCell>
                <mxCell id="186" value="" style="edgeStyle=none;html=1;" edge="1" parent="1" source="73" target="177">
                    <mxGeometry relative="1" as="geometry"/>
                </mxCell>
                <mxCell id="73" value="show books" style="strokeWidth=2;html=1;shape=mxgraph.flowchart.display;whiteSpace=wrap;fillColor=#99FFFF;" vertex="1" parent="1">
                    <mxGeometry x="953.18" y="890" width="156.82" height="60" as="geometry"/>
                </mxCell>
                <mxCell id="187" value="" style="edgeStyle=none;html=1;" edge="1" parent="1" source="74" target="176">
                    <mxGeometry relative="1" as="geometry"/>
                </mxCell>
                <mxCell id="74" value="update book" style="html=1;strokeWidth=2;shape=manualInput;whiteSpace=wrap;rounded=1;size=26;arcSize=11;fillColor=#FFCCCC;" vertex="1" parent="1">
                    <mxGeometry x="955" y="1050" width="100" height="60" as="geometry"/>
                </mxCell>
                <mxCell id="188" value="" style="edgeStyle=none;html=1;" edge="1" parent="1" source="75" target="175">
                    <mxGeometry relative="1" as="geometry"/>
                </mxCell>
                <mxCell id="75" value="delete book" style="html=1;strokeWidth=2;shape=manualInput;whiteSpace=wrap;rounded=1;size=26;arcSize=11;fillColor=#FFCCCC;" vertex="1" parent="1">
                    <mxGeometry x="955" y="1200" width="100" height="60" as="geometry"/>
                </mxCell>
                <mxCell id="76" value="" style="edgeStyle=none;html=1;" edge="1" parent="1" source="77">
                    <mxGeometry relative="1" as="geometry">
                        <mxPoint x="1350" y="420" as="targetPoint"/>
                    </mxGeometry>
                </mxCell>
                <mxCell id="77" value="&lt;font face=&quot;Consolas, Courier New, monospace&quot; color=&quot;#998f2f&quot;&gt;&lt;span style=&quot;font-size: 14px; white-space: pre; background-color: rgb(250, 250, 250);&quot;&gt;Manage member&lt;/span&gt;&lt;/font&gt;" style="strokeWidth=2;html=1;shape=mxgraph.flowchart.terminator;whiteSpace=wrap;fillColor=#CCFFCC;" vertex="1" parent="1">
                    <mxGeometry x="1260" y="300" width="180" height="60" as="geometry"/>
                </mxCell>
                <mxCell id="78" value="" style="edgeStyle=none;html=1;" edge="1" parent="1" target="80">
                    <mxGeometry relative="1" as="geometry">
                        <mxPoint x="1350" y="570" as="sourcePoint"/>
                    </mxGeometry>
                </mxCell>
                <mxCell id="79" value="" style="edgeStyle=none;html=1;" edge="1" parent="1" source="80" target="84">
                    <mxGeometry relative="1" as="geometry"/>
                </mxCell>
                <mxCell id="80" value="Select option:" style="html=1;strokeWidth=2;shape=manualInput;whiteSpace=wrap;rounded=1;size=26;arcSize=11;fillColor=#FFCCCC;" vertex="1" parent="1">
                    <mxGeometry x="1285" y="630" width="130" height="60" as="geometry"/>
                </mxCell>
                <mxCell id="81" value="" style="edgeStyle=none;html=1;" edge="1" parent="1" source="84" target="87">
                    <mxGeometry relative="1" as="geometry"/>
                </mxCell>
                <mxCell id="82" value="" style="edgeStyle=none;html=1;" edge="1" parent="1" source="84">
                    <mxGeometry relative="1" as="geometry">
                        <mxPoint x="1470" y="780" as="targetPoint"/>
                    </mxGeometry>
                </mxCell>
                <mxCell id="83" value="true" style="edgeLabel;html=1;align=center;verticalAlign=middle;resizable=0;points=[];" vertex="1" connectable="0" parent="82">
                    <mxGeometry x="-0.1977" y="-1" relative="1" as="geometry">
                        <mxPoint as="offset"/>
                    </mxGeometry>
                </mxCell>
                <mxCell id="84" value="if option == 1" style="strokeWidth=2;html=1;shape=mxgraph.flowchart.decision;whiteSpace=wrap;fillColor=#FFFFCC;" vertex="1" parent="1">
                    <mxGeometry x="1300" y="730" width="100" height="100" as="geometry"/>
                </mxCell>
                <mxCell id="85" value="" style="edgeStyle=none;html=1;" edge="1" parent="1" source="87" target="90">
                    <mxGeometry relative="1" as="geometry"/>
                </mxCell>
                <mxCell id="86" value="" style="edgeStyle=none;html=1;" edge="1" parent="1" source="87">
                    <mxGeometry relative="1" as="geometry">
                        <mxPoint x="1470" y="930" as="targetPoint"/>
                    </mxGeometry>
                </mxCell>
                <mxCell id="87" value="&lt;br&gt;&lt;span style=&quot;color: rgb(0, 0, 0); font-family: Helvetica; font-size: 12px; font-style: normal; font-variant-ligatures: normal; font-variant-caps: normal; font-weight: 400; letter-spacing: normal; orphans: 2; text-align: center; text-indent: 0px; text-transform: none; widows: 2; word-spacing: 0px; -webkit-text-stroke-width: 0px; white-space: normal; background-color: rgb(251, 251, 251); text-decoration-thickness: initial; text-decoration-style: initial; text-decoration-color: initial; float: none; display: inline !important;&quot;&gt;if option == 2&lt;/span&gt;&lt;br&gt;&lt;div&gt;&lt;span style=&quot;color: rgb(0, 0, 0); font-family: Helvetica; font-size: 12px; font-style: normal; font-variant-ligatures: normal; font-variant-caps: normal; font-weight: 400; letter-spacing: normal; orphans: 2; text-align: center; text-indent: 0px; text-transform: none; widows: 2; word-spacing: 0px; -webkit-text-stroke-width: 0px; white-space: normal; background-color: rgb(251, 251, 251); text-decoration-thickness: initial; text-decoration-style: initial; text-decoration-color: initial; float: none; display: inline !important;&quot;&gt;&lt;br&gt;&lt;/span&gt;&lt;/div&gt;" style="strokeWidth=2;html=1;shape=mxgraph.flowchart.decision;whiteSpace=wrap;fillColor=#FFFFCC;" vertex="1" parent="1">
                    <mxGeometry x="1300" y="880" width="100" height="100" as="geometry"/>
                </mxCell>
                <mxCell id="88" value="" style="edgeStyle=none;html=1;fillColor=#FFFFCC;" edge="1" parent="1" source="90" target="93">
                    <mxGeometry relative="1" as="geometry"/>
                </mxCell>
                <mxCell id="89" value="" style="edgeStyle=none;html=1;" edge="1" parent="1" source="90">
                    <mxGeometry relative="1" as="geometry">
                        <mxPoint x="1470" y="1100" as="targetPoint"/>
                    </mxGeometry>
                </mxCell>
                <mxCell id="90" value="&lt;br&gt;&lt;span style=&quot;color: rgb(0, 0, 0); font-family: Helvetica; font-size: 12px; font-style: normal; font-variant-ligatures: normal; font-variant-caps: normal; font-weight: 400; letter-spacing: normal; orphans: 2; text-align: center; text-indent: 0px; text-transform: none; widows: 2; word-spacing: 0px; -webkit-text-stroke-width: 0px; white-space: normal; background-color: rgb(251, 251, 251); text-decoration-thickness: initial; text-decoration-style: initial; text-decoration-color: initial; float: none; display: inline !important;&quot;&gt;if option == 3&lt;/span&gt;&lt;br&gt;&lt;div&gt;&lt;span style=&quot;color: rgb(0, 0, 0); font-family: Helvetica; font-size: 12px; font-style: normal; font-variant-ligatures: normal; font-variant-caps: normal; font-weight: 400; letter-spacing: normal; orphans: 2; text-align: center; text-indent: 0px; text-transform: none; widows: 2; word-spacing: 0px; -webkit-text-stroke-width: 0px; white-space: normal; background-color: rgb(251, 251, 251); text-decoration-thickness: initial; text-decoration-style: initial; text-decoration-color: initial; float: none; display: inline !important;&quot;&gt;&lt;br&gt;&lt;/span&gt;&lt;/div&gt;" style="strokeWidth=2;html=1;shape=mxgraph.flowchart.decision;whiteSpace=wrap;fillColor=#FFFFCC;" vertex="1" parent="1">
                    <mxGeometry x="1300" y="1050" width="100" height="100" as="geometry"/>
                </mxCell>
                <mxCell id="91" value="" style="edgeStyle=none;html=1;" edge="1" parent="1" source="93">
                    <mxGeometry relative="1" as="geometry">
                        <mxPoint x="1470" y="1250" as="targetPoint"/>
                    </mxGeometry>
                </mxCell>
                <mxCell id="92" value="" style="edgeStyle=none;html=1;" edge="1" parent="1" source="93" target="96">
                    <mxGeometry relative="1" as="geometry"/>
                </mxCell>
                <mxCell id="93" value="&lt;br&gt;&lt;span style=&quot;color: rgb(0, 0, 0); font-family: Helvetica; font-size: 12px; font-style: normal; font-variant-ligatures: normal; font-variant-caps: normal; font-weight: 400; letter-spacing: normal; orphans: 2; text-align: center; text-indent: 0px; text-transform: none; widows: 2; word-spacing: 0px; -webkit-text-stroke-width: 0px; white-space: normal; background-color: rgb(251, 251, 251); text-decoration-thickness: initial; text-decoration-style: initial; text-decoration-color: initial; float: none; display: inline !important;&quot;&gt;if option == 4&lt;/span&gt;&lt;div&gt;&lt;div&gt;&lt;span style=&quot;color: rgb(0, 0, 0); font-family: Helvetica; font-size: 12px; font-style: normal; font-variant-ligatures: normal; font-variant-caps: normal; font-weight: 400; letter-spacing: normal; orphans: 2; text-align: center; text-indent: 0px; text-transform: none; widows: 2; word-spacing: 0px; -webkit-text-stroke-width: 0px; white-space: normal; background-color: rgb(251, 251, 251); text-decoration-thickness: initial; text-decoration-style: initial; text-decoration-color: initial; float: none; display: inline !important;&quot;&gt;&lt;br&gt;&lt;/span&gt;&lt;/div&gt;&lt;/div&gt;" style="strokeWidth=2;html=1;shape=mxgraph.flowchart.decision;whiteSpace=wrap;fillColor=#FFFFCC;" vertex="1" parent="1">
                    <mxGeometry x="1300" y="1200" width="100" height="100" as="geometry"/>
                </mxCell>
                <mxCell id="94" value="" style="edgeStyle=none;html=1;" edge="1" parent="1" source="96" target="97">
                    <mxGeometry relative="1" as="geometry"/>
                </mxCell>
                <mxCell id="95" value="true" style="edgeLabel;html=1;align=center;verticalAlign=middle;resizable=0;points=[];" vertex="1" connectable="0" parent="94">
                    <mxGeometry x="-0.2364" y="3" relative="1" as="geometry">
                        <mxPoint as="offset"/>
                    </mxGeometry>
                </mxCell>
                <mxCell id="96" value="if option == 0" style="strokeWidth=2;html=1;shape=mxgraph.flowchart.decision;whiteSpace=wrap;fillColor=#FFFFCC;" vertex="1" parent="1">
                    <mxGeometry x="1300" y="1360" width="100" height="100" as="geometry"/>
                </mxCell>
                <mxCell id="97" value="&lt;span style=&quot;color: rgb(0, 0, 0);&quot;&gt;back to main menu&lt;/span&gt;" style="strokeWidth=2;html=1;shape=mxgraph.flowchart.terminator;whiteSpace=wrap;fillColor=#CCFFCC;" vertex="1" parent="1">
                    <mxGeometry x="1490" y="1380" width="120" height="60" as="geometry"/>
                </mxCell>
                <mxCell id="98" value="true" style="edgeLabel;html=1;align=center;verticalAlign=middle;resizable=0;points=[];" vertex="1" connectable="0" parent="1">
                    <mxGeometry x="1448.1818181818182" y="801" as="geometry">
                        <mxPoint x="-29" y="135" as="offset"/>
                    </mxGeometry>
                </mxCell>
                <mxCell id="99" value="true" style="edgeLabel;html=1;align=center;verticalAlign=middle;resizable=0;points=[];" vertex="1" connectable="0" parent="1">
                    <mxGeometry x="1458.1818181818182" y="811" as="geometry">
                        <mxPoint x="-35" y="291" as="offset"/>
                    </mxGeometry>
                </mxCell>
                <mxCell id="100" value="true" style="edgeLabel;html=1;align=center;verticalAlign=middle;resizable=0;points=[];" vertex="1" connectable="0" parent="1">
                    <mxGeometry x="1468.1818181818182" y="821" as="geometry">
                        <mxPoint x="-34" y="428" as="offset"/>
                    </mxGeometry>
                </mxCell>
                <mxCell id="168" value="" style="edgeStyle=none;html=1;" edge="1" parent="1" source="101" target="167">
                    <mxGeometry relative="1" as="geometry"/>
                </mxCell>
                <mxCell id="101" value="add member" style="html=1;strokeWidth=2;shape=manualInput;whiteSpace=wrap;rounded=1;size=26;arcSize=11;fillColor=#FFCCCC;" vertex="1" parent="1">
                    <mxGeometry x="1470" y="740" width="100" height="60" as="geometry"/>
                </mxCell>
                <mxCell id="166" value="" style="edgeStyle=none;html=1;" edge="1" parent="1" source="102" target="165">
                    <mxGeometry relative="1" as="geometry"/>
                </mxCell>
                <mxCell id="102" value="show member" style="strokeWidth=2;html=1;shape=mxgraph.flowchart.display;whiteSpace=wrap;fillColor=#99FFFF;" vertex="1" parent="1">
                    <mxGeometry x="1468.1799999999998" y="900" width="156.82" height="60" as="geometry"/>
                </mxCell>
                <mxCell id="164" value="" style="edgeStyle=none;html=1;" edge="1" parent="1" source="103" target="163">
                    <mxGeometry relative="1" as="geometry"/>
                </mxCell>
                <mxCell id="103" value="update member" style="html=1;strokeWidth=2;shape=manualInput;whiteSpace=wrap;rounded=1;size=26;arcSize=11;fillColor=#FFCCCC;" vertex="1" parent="1">
                    <mxGeometry x="1470" y="1060" width="100" height="60" as="geometry"/>
                </mxCell>
                <mxCell id="162" value="" style="edgeStyle=none;html=1;" edge="1" parent="1" source="104" target="161">
                    <mxGeometry relative="1" as="geometry"/>
                </mxCell>
                <mxCell id="104" value="delete member" style="html=1;strokeWidth=2;shape=manualInput;whiteSpace=wrap;rounded=1;size=26;arcSize=11;fillColor=#FFCCCC;" vertex="1" parent="1">
                    <mxGeometry x="1470" y="1210" width="100" height="60" as="geometry"/>
                </mxCell>
                <mxCell id="105" value="&lt;div&gt;&lt;font color=&quot;#000000&quot;&gt;Manage Members Menu&lt;/font&gt;&lt;/div&gt;&lt;div&gt;&lt;font color=&quot;#000000&quot;&gt;&amp;nbsp; 1) Add Member&lt;/font&gt;&lt;/div&gt;&lt;div&gt;&lt;font color=&quot;#000000&quot;&gt;&amp;nbsp; 2) View Members&lt;/font&gt;&lt;/div&gt;&lt;div&gt;&lt;font color=&quot;#000000&quot;&gt;&amp;nbsp; 3) Update Member&lt;/font&gt;&lt;/div&gt;&lt;div&gt;&lt;font color=&quot;#000000&quot;&gt;&amp;nbsp; 4) Delete Member&lt;/font&gt;&lt;/div&gt;&lt;div&gt;&lt;font color=&quot;#000000&quot;&gt;&amp;nbsp; 0) Back to Main Menu&lt;/font&gt;&lt;/div&gt;" style="strokeWidth=2;html=1;shape=mxgraph.flowchart.display;whiteSpace=wrap;fillColor=#99FFFF;" vertex="1" parent="1">
                    <mxGeometry x="1180" y="420" width="330" height="150" as="geometry"/>
                </mxCell>
                <mxCell id="106" value="" style="edgeStyle=none;html=1;" edge="1" parent="1" source="107">
                    <mxGeometry relative="1" as="geometry">
                        <mxPoint x="1880" y="430" as="targetPoint"/>
                    </mxGeometry>
                </mxCell>
                <mxCell id="107" value="&lt;span style=&quot;color: rgb(153, 143, 47); font-family: Consolas, &amp;quot;Courier New&amp;quot;, monospace; font-size: 14px; white-space: pre; background-color: rgb(250, 250, 250);&quot;&gt;Manage Borrows/Returns&lt;/span&gt;" style="strokeWidth=2;html=1;shape=mxgraph.flowchart.terminator;whiteSpace=wrap;fillColor=#CCFFCC;" vertex="1" parent="1">
                    <mxGeometry x="1765" y="310" width="230" height="60" as="geometry"/>
                </mxCell>
                <mxCell id="108" value="" style="edgeStyle=none;html=1;" edge="1" parent="1" target="110">
                    <mxGeometry relative="1" as="geometry">
                        <mxPoint x="1880" y="580" as="sourcePoint"/>
                    </mxGeometry>
                </mxCell>
                <mxCell id="109" value="" style="edgeStyle=none;html=1;" edge="1" parent="1" source="110" target="114">
                    <mxGeometry relative="1" as="geometry"/>
                </mxCell>
                <mxCell id="110" value="Select option:" style="html=1;strokeWidth=2;shape=manualInput;whiteSpace=wrap;rounded=1;size=26;arcSize=11;fillColor=#FFCCCC;" vertex="1" parent="1">
                    <mxGeometry x="1815" y="640" width="130" height="60" as="geometry"/>
                </mxCell>
                <mxCell id="111" value="" style="edgeStyle=none;html=1;" edge="1" parent="1" source="114" target="117">
                    <mxGeometry relative="1" as="geometry"/>
                </mxCell>
                <mxCell id="112" value="" style="edgeStyle=none;html=1;" edge="1" parent="1" source="114">
                    <mxGeometry relative="1" as="geometry">
                        <mxPoint x="2000" y="790" as="targetPoint"/>
                    </mxGeometry>
                </mxCell>
                <mxCell id="113" value="true" style="edgeLabel;html=1;align=center;verticalAlign=middle;resizable=0;points=[];" vertex="1" connectable="0" parent="112">
                    <mxGeometry x="-0.1977" y="-1" relative="1" as="geometry">
                        <mxPoint as="offset"/>
                    </mxGeometry>
                </mxCell>
                <mxCell id="114" value="if option == 1" style="strokeWidth=2;html=1;shape=mxgraph.flowchart.decision;whiteSpace=wrap;fillColor=#FFFFCC;" vertex="1" parent="1">
                    <mxGeometry x="1830" y="740" width="100" height="100" as="geometry"/>
                </mxCell>
                <mxCell id="115" value="" style="edgeStyle=none;html=1;" edge="1" parent="1" source="117" target="120">
                    <mxGeometry relative="1" as="geometry"/>
                </mxCell>
                <mxCell id="116" value="" style="edgeStyle=none;html=1;" edge="1" parent="1" source="117">
                    <mxGeometry relative="1" as="geometry">
                        <mxPoint x="2000" y="940" as="targetPoint"/>
                    </mxGeometry>
                </mxCell>
                <mxCell id="117" value="&lt;br&gt;&lt;span style=&quot;color: rgb(0, 0, 0); font-family: Helvetica; font-size: 12px; font-style: normal; font-variant-ligatures: normal; font-variant-caps: normal; font-weight: 400; letter-spacing: normal; orphans: 2; text-align: center; text-indent: 0px; text-transform: none; widows: 2; word-spacing: 0px; -webkit-text-stroke-width: 0px; white-space: normal; background-color: rgb(251, 251, 251); text-decoration-thickness: initial; text-decoration-style: initial; text-decoration-color: initial; float: none; display: inline !important;&quot;&gt;if option == 2&lt;/span&gt;&lt;br&gt;&lt;div&gt;&lt;span style=&quot;color: rgb(0, 0, 0); font-family: Helvetica; font-size: 12px; font-style: normal; font-variant-ligatures: normal; font-variant-caps: normal; font-weight: 400; letter-spacing: normal; orphans: 2; text-align: center; text-indent: 0px; text-transform: none; widows: 2; word-spacing: 0px; -webkit-text-stroke-width: 0px; white-space: normal; background-color: rgb(251, 251, 251); text-decoration-thickness: initial; text-decoration-style: initial; text-decoration-color: initial; float: none; display: inline !important;&quot;&gt;&lt;br&gt;&lt;/span&gt;&lt;/div&gt;" style="strokeWidth=2;html=1;shape=mxgraph.flowchart.decision;whiteSpace=wrap;fillColor=#FFFFCC;" vertex="1" parent="1">
                    <mxGeometry x="1830" y="890" width="100" height="100" as="geometry"/>
                </mxCell>
                <mxCell id="118" value="" style="edgeStyle=none;html=1;" edge="1" parent="1" source="120">
                    <mxGeometry relative="1" as="geometry">
                        <mxPoint x="1880" y="1210" as="targetPoint"/>
                    </mxGeometry>
                </mxCell>
                <mxCell id="119" value="" style="edgeStyle=none;html=1;" edge="1" parent="1" source="120">
                    <mxGeometry relative="1" as="geometry">
                        <mxPoint x="2000" y="1110" as="targetPoint"/>
                    </mxGeometry>
                </mxCell>
                <mxCell id="120" value="&lt;br&gt;&lt;span style=&quot;color: rgb(0, 0, 0); font-family: Helvetica; font-size: 12px; font-style: normal; font-variant-ligatures: normal; font-variant-caps: normal; font-weight: 400; letter-spacing: normal; orphans: 2; text-align: center; text-indent: 0px; text-transform: none; widows: 2; word-spacing: 0px; -webkit-text-stroke-width: 0px; white-space: normal; background-color: rgb(251, 251, 251); text-decoration-thickness: initial; text-decoration-style: initial; text-decoration-color: initial; float: none; display: inline !important;&quot;&gt;if option == 3&lt;/span&gt;&lt;br&gt;&lt;div&gt;&lt;span style=&quot;color: rgb(0, 0, 0); font-family: Helvetica; font-size: 12px; font-style: normal; font-variant-ligatures: normal; font-variant-caps: normal; font-weight: 400; letter-spacing: normal; orphans: 2; text-align: center; text-indent: 0px; text-transform: none; widows: 2; word-spacing: 0px; -webkit-text-stroke-width: 0px; white-space: normal; background-color: rgb(251, 251, 251); text-decoration-thickness: initial; text-decoration-style: initial; text-decoration-color: initial; float: none; display: inline !important;&quot;&gt;&lt;br&gt;&lt;/span&gt;&lt;/div&gt;" style="strokeWidth=2;html=1;shape=mxgraph.flowchart.decision;whiteSpace=wrap;fillColor=#FFFFCC;" vertex="1" parent="1">
                    <mxGeometry x="1830" y="1060" width="100" height="100" as="geometry"/>
                </mxCell>
                <mxCell id="124" value="" style="edgeStyle=none;html=1;" edge="1" parent="1" source="126" target="127">
                    <mxGeometry relative="1" as="geometry"/>
                </mxCell>
                <mxCell id="125" value="true" style="edgeLabel;html=1;align=center;verticalAlign=middle;resizable=0;points=[];" vertex="1" connectable="0" parent="124">
                    <mxGeometry x="-0.2364" y="3" relative="1" as="geometry">
                        <mxPoint as="offset"/>
                    </mxGeometry>
                </mxCell>
                <mxCell id="126" value="if option == 0" style="strokeWidth=2;html=1;shape=mxgraph.flowchart.decision;whiteSpace=wrap;fillColor=#FFFFCC;" vertex="1" parent="1">
                    <mxGeometry x="1830" y="1210" width="100" height="100" as="geometry"/>
                </mxCell>
                <mxCell id="127" value="back to main menu" style="strokeWidth=2;html=1;shape=mxgraph.flowchart.terminator;whiteSpace=wrap;fillColor=#CCFFCC;" vertex="1" parent="1">
                    <mxGeometry x="2020" y="1230" width="120" height="60" as="geometry"/>
                </mxCell>
                <mxCell id="128" value="true" style="edgeLabel;html=1;align=center;verticalAlign=middle;resizable=0;points=[];" vertex="1" connectable="0" parent="1">
                    <mxGeometry x="1978.1818181818182" y="811" as="geometry">
                        <mxPoint x="-29" y="135" as="offset"/>
                    </mxGeometry>
                </mxCell>
                <mxCell id="129" value="true" style="edgeLabel;html=1;align=center;verticalAlign=middle;resizable=0;points=[];" vertex="1" connectable="0" parent="1">
                    <mxGeometry x="1988.1818181818182" y="821" as="geometry">
                        <mxPoint x="-35" y="291" as="offset"/>
                    </mxGeometry>
                </mxCell>
                <mxCell id="140" value="" style="edgeStyle=none;html=1;" edge="1" parent="1" source="131" target="139">
                    <mxGeometry relative="1" as="geometry"/>
                </mxCell>
                <mxCell id="131" value="add borrow" style="html=1;strokeWidth=2;shape=manualInput;whiteSpace=wrap;rounded=1;size=26;arcSize=11;fillColor=#FFCCCC;" vertex="1" parent="1">
                    <mxGeometry x="2000" y="750" width="100" height="60" as="geometry"/>
                </mxCell>
                <mxCell id="135" value="&lt;div&gt;&lt;font color=&quot;#000000&quot;&gt;Manage Members Menu&lt;/font&gt;&lt;/div&gt;&lt;div&gt;&lt;font color=&quot;#000000&quot;&gt;&amp;nbsp; 1) Add Member&lt;/font&gt;&lt;/div&gt;&lt;div&gt;&lt;font color=&quot;#000000&quot;&gt;&amp;nbsp; 2) View Members&lt;/font&gt;&lt;/div&gt;&lt;div&gt;&lt;font color=&quot;#000000&quot;&gt;&amp;nbsp; 3) Update Member&lt;/font&gt;&lt;/div&gt;&lt;div&gt;&lt;font color=&quot;#000000&quot;&gt;&amp;nbsp; 4) Delete Member&lt;/font&gt;&lt;/div&gt;&lt;div&gt;&lt;font color=&quot;#000000&quot;&gt;&amp;nbsp; 0) Back to Main Menu&lt;/font&gt;&lt;/div&gt;" style="strokeWidth=2;html=1;shape=mxgraph.flowchart.display;whiteSpace=wrap;fillColor=#99FFFF;" vertex="1" parent="1">
                    <mxGeometry x="1710" y="430" width="330" height="150" as="geometry"/>
                </mxCell>
                <mxCell id="136" value="Genarate report.txt" style="rounded=1;whiteSpace=wrap;html=1;absoluteArcSize=1;arcSize=14;strokeWidth=2;fillColor=#CCCCFF;" vertex="1" parent="1">
                    <mxGeometry x="390" y="1220" width="260" height="60" as="geometry"/>
                </mxCell>
                <mxCell id="142" value="" style="edgeStyle=none;html=1;" edge="1" parent="1" source="139" target="141">
                    <mxGeometry relative="1" as="geometry"/>
                </mxCell>
                <mxCell id="146" value="flalse" style="edgeLabel;html=1;align=center;verticalAlign=middle;resizable=0;points=[];" vertex="1" connectable="0" parent="142">
                    <mxGeometry x="-0.1704" y="2" relative="1" as="geometry">
                        <mxPoint as="offset"/>
                    </mxGeometry>
                </mxCell>
                <mxCell id="148" value="" style="edgeStyle=none;html=1;" edge="1" parent="1" source="139" target="147">
                    <mxGeometry relative="1" as="geometry"/>
                </mxCell>
                <mxCell id="156" value="true" style="edgeLabel;html=1;align=center;verticalAlign=middle;resizable=0;points=[];" vertex="1" connectable="0" parent="148">
                    <mxGeometry x="-0.4388" y="-2" relative="1" as="geometry">
                        <mxPoint as="offset"/>
                    </mxGeometry>
                </mxCell>
                <mxCell id="139" value="is book out of stock?" style="strokeWidth=2;html=1;shape=mxgraph.flowchart.decision;whiteSpace=wrap;fillColor=#FFFFCC;" vertex="1" parent="1">
                    <mxGeometry x="2210" y="731" width="170" height="100" as="geometry"/>
                </mxCell>
                <mxCell id="154" value="" style="edgeStyle=none;html=1;" edge="1" parent="1" source="141" target="153">
                    <mxGeometry relative="1" as="geometry"/>
                </mxCell>
                <mxCell id="157" value="true" style="edgeLabel;html=1;align=center;verticalAlign=middle;resizable=0;points=[];" vertex="1" connectable="0" parent="154">
                    <mxGeometry x="-0.2913" y="-1" relative="1" as="geometry">
                        <mxPoint as="offset"/>
                    </mxGeometry>
                </mxCell>
                <mxCell id="159" value="" style="edgeStyle=none;html=1;" edge="1" parent="1" source="141" target="158">
                    <mxGeometry relative="1" as="geometry"/>
                </mxCell>
                <mxCell id="141" value="is member already borrow this book?" style="rhombus;whiteSpace=wrap;html=1;strokeWidth=2;fillColor=#FFFFCC;" vertex="1" parent="1">
                    <mxGeometry x="2227.18" y="890" width="135.63" height="129" as="geometry"/>
                </mxCell>
                <mxCell id="150" value="" style="edgeStyle=none;html=1;" edge="1" parent="1" source="147" target="149">
                    <mxGeometry relative="1" as="geometry"/>
                </mxCell>
                <mxCell id="147" value="" style="shape=waypoint;sketch=0;size=6;pointerEvents=1;points=[];fillColor=default;resizable=0;rotatable=0;perimeter=centerPerimeter;snapToPoint=1;strokeWidth=2;" vertex="1" parent="1">
                    <mxGeometry x="2450" y="770" width="20" height="20" as="geometry"/>
                </mxCell>
                <mxCell id="151" style="edgeStyle=none;html=1;" edge="1" parent="1" source="149" target="110">
                    <mxGeometry relative="1" as="geometry"/>
                </mxCell>
                <mxCell id="149" value="" style="shape=waypoint;sketch=0;size=6;pointerEvents=1;points=[];fillColor=default;resizable=0;rotatable=0;perimeter=centerPerimeter;snapToPoint=1;strokeWidth=2;" vertex="1" parent="1">
                    <mxGeometry x="2450" y="660" width="20" height="20" as="geometry"/>
                </mxCell>
                <mxCell id="153" value="" style="shape=waypoint;sketch=0;size=6;pointerEvents=1;points=[];fillColor=default;resizable=0;rotatable=0;perimeter=centerPerimeter;snapToPoint=1;strokeWidth=2;" vertex="1" parent="1">
                    <mxGeometry x="2449.995" y="944.5" width="20" height="20" as="geometry"/>
                </mxCell>
                <mxCell id="155" style="edgeStyle=none;html=1;entryX=0.348;entryY=0.82;entryDx=0;entryDy=0;entryPerimeter=0;" edge="1" parent="1" source="153" target="147">
                    <mxGeometry relative="1" as="geometry"/>
                </mxCell>
                <mxCell id="200" value="" style="edgeStyle=none;html=1;" edge="1" parent="1" source="158" target="199">
                    <mxGeometry relative="1" as="geometry"/>
                </mxCell>
                <mxCell id="158" value="Borrow Successful" style="rounded=1;whiteSpace=wrap;html=1;strokeWidth=2;fillColor=#CCCCFF;" vertex="1" parent="1">
                    <mxGeometry x="2234.995" y="1040" width="120" height="60" as="geometry"/>
                </mxCell>
                <mxCell id="161" value="" style="shape=waypoint;sketch=0;size=6;pointerEvents=1;points=[];fillColor=default;resizable=0;rotatable=0;perimeter=centerPerimeter;snapToPoint=1;strokeWidth=2;rounded=1;arcSize=11;" vertex="1" parent="1">
                    <mxGeometry x="1690" y="1230" width="20" height="20" as="geometry"/>
                </mxCell>
                <mxCell id="163" value="" style="shape=waypoint;sketch=0;size=6;pointerEvents=1;points=[];fillColor=default;resizable=0;rotatable=0;perimeter=centerPerimeter;snapToPoint=1;strokeWidth=2;rounded=1;arcSize=11;" vertex="1" parent="1">
                    <mxGeometry x="1690" y="1080" width="20" height="20" as="geometry"/>
                </mxCell>
                <mxCell id="165" value="" style="shape=waypoint;sketch=0;size=6;pointerEvents=1;points=[];fillColor=default;resizable=0;rotatable=0;perimeter=centerPerimeter;snapToPoint=1;strokeWidth=2;" vertex="1" parent="1">
                    <mxGeometry x="1689.9999999999998" y="920" width="20" height="20" as="geometry"/>
                </mxCell>
                <mxCell id="170" value="" style="edgeStyle=none;html=1;" edge="1" parent="1" source="167" target="169">
                    <mxGeometry relative="1" as="geometry"/>
                </mxCell>
                <mxCell id="167" value="" style="shape=waypoint;sketch=0;size=6;pointerEvents=1;points=[];fillColor=default;resizable=0;rotatable=0;perimeter=centerPerimeter;snapToPoint=1;strokeWidth=2;rounded=1;arcSize=11;" vertex="1" parent="1">
                    <mxGeometry x="1690" y="760" width="20" height="20" as="geometry"/>
                </mxCell>
                <mxCell id="171" style="edgeStyle=none;html=1;entryX=1;entryY=0.5;entryDx=0;entryDy=0;" edge="1" parent="1" source="169" target="80">
                    <mxGeometry relative="1" as="geometry"/>
                </mxCell>
                <mxCell id="169" value="" style="shape=waypoint;sketch=0;size=6;pointerEvents=1;points=[];fillColor=default;resizable=0;rotatable=0;perimeter=centerPerimeter;snapToPoint=1;strokeWidth=2;rounded=1;arcSize=11;" vertex="1" parent="1">
                    <mxGeometry x="1690" y="650" width="20" height="20" as="geometry"/>
                </mxCell>
                <mxCell id="172" style="edgeStyle=none;html=1;entryX=0.533;entryY=1.133;entryDx=0;entryDy=0;entryPerimeter=0;" edge="1" parent="1" source="165" target="167">
                    <mxGeometry relative="1" as="geometry"/>
                </mxCell>
                <mxCell id="173" style="edgeStyle=none;html=1;entryX=0.667;entryY=1.033;entryDx=0;entryDy=0;entryPerimeter=0;" edge="1" parent="1" source="163" target="165">
                    <mxGeometry relative="1" as="geometry"/>
                </mxCell>
                <mxCell id="174" style="edgeStyle=none;html=1;entryX=0.5;entryY=0.8;entryDx=0;entryDy=0;entryPerimeter=0;" edge="1" parent="1" source="161" target="163">
                    <mxGeometry relative="1" as="geometry"/>
                </mxCell>
                <mxCell id="175" value="" style="shape=waypoint;sketch=0;size=6;pointerEvents=1;points=[];fillColor=default;resizable=0;rotatable=0;perimeter=centerPerimeter;snapToPoint=1;strokeWidth=2;rounded=1;arcSize=11;" vertex="1" parent="1">
                    <mxGeometry x="1150" y="1220" width="20" height="20" as="geometry"/>
                </mxCell>
                <mxCell id="176" value="" style="shape=waypoint;sketch=0;size=6;pointerEvents=1;points=[];fillColor=default;resizable=0;rotatable=0;perimeter=centerPerimeter;snapToPoint=1;strokeWidth=2;rounded=1;arcSize=11;" vertex="1" parent="1">
                    <mxGeometry x="1150" y="1070" width="20" height="20" as="geometry"/>
                </mxCell>
                <mxCell id="177" value="" style="shape=waypoint;sketch=0;size=6;pointerEvents=1;points=[];fillColor=default;resizable=0;rotatable=0;perimeter=centerPerimeter;snapToPoint=1;strokeWidth=2;" vertex="1" parent="1">
                    <mxGeometry x="1149.9999999999998" y="910" width="20" height="20" as="geometry"/>
                </mxCell>
                <mxCell id="178" value="" style="edgeStyle=none;html=1;" edge="1" parent="1" source="179" target="180">
                    <mxGeometry relative="1" as="geometry"/>
                </mxCell>
                <mxCell id="179" value="" style="shape=waypoint;sketch=0;size=6;pointerEvents=1;points=[];fillColor=default;resizable=0;rotatable=0;perimeter=centerPerimeter;snapToPoint=1;strokeWidth=2;rounded=1;arcSize=11;" vertex="1" parent="1">
                    <mxGeometry x="1150" y="750" width="20" height="20" as="geometry"/>
                </mxCell>
                <mxCell id="185" style="edgeStyle=none;html=1;entryX=1;entryY=0.5;entryDx=0;entryDy=0;" edge="1" parent="1" source="180" target="45">
                    <mxGeometry relative="1" as="geometry"/>
                </mxCell>
                <mxCell id="180" value="" style="shape=waypoint;sketch=0;size=6;pointerEvents=1;points=[];fillColor=default;resizable=0;rotatable=0;perimeter=centerPerimeter;snapToPoint=1;strokeWidth=2;rounded=1;arcSize=11;" vertex="1" parent="1">
                    <mxGeometry x="1150" y="640" width="20" height="20" as="geometry"/>
                </mxCell>
                <mxCell id="181" style="edgeStyle=none;html=1;entryX=0.533;entryY=1.133;entryDx=0;entryDy=0;entryPerimeter=0;" edge="1" parent="1" source="177" target="179">
                    <mxGeometry relative="1" as="geometry"/>
                </mxCell>
                <mxCell id="182" style="edgeStyle=none;html=1;entryX=0.667;entryY=1.033;entryDx=0;entryDy=0;entryPerimeter=0;" edge="1" parent="1" source="176" target="177">
                    <mxGeometry relative="1" as="geometry"/>
                </mxCell>
                <mxCell id="183" style="edgeStyle=none;html=1;entryX=0.5;entryY=0.8;entryDx=0;entryDy=0;entryPerimeter=0;" edge="1" parent="1" source="175" target="176">
                    <mxGeometry relative="1" as="geometry"/>
                </mxCell>
                <mxCell id="199" value="" style="shape=waypoint;sketch=0;size=6;pointerEvents=1;points=[];fillColor=default;resizable=0;rotatable=0;perimeter=centerPerimeter;snapToPoint=1;rounded=1;strokeWidth=2;" vertex="1" parent="1">
                    <mxGeometry x="2449.995" y="1060" width="20" height="20" as="geometry"/>
                </mxCell>
                <mxCell id="201" style="edgeStyle=none;html=1;entryX=0.691;entryY=0.974;entryDx=0;entryDy=0;entryPerimeter=0;" edge="1" parent="1" source="199" target="153">
                    <mxGeometry relative="1" as="geometry"/>
                </mxCell>
                <mxCell id="202" value="show borrow list" style="strokeWidth=2;html=1;shape=mxgraph.flowchart.display;whiteSpace=wrap;fillColor=#99FFFF;" vertex="1" parent="1">
                    <mxGeometry x="2001.5899999999997" y="1080" width="156.82" height="60" as="geometry"/>
                </mxCell>
                <mxCell id="203" value="return book" style="html=1;strokeWidth=2;shape=manualInput;whiteSpace=wrap;rounded=1;size=26;arcSize=11;fillColor=#FFCCCC;" vertex="1" parent="1">
                    <mxGeometry x="2000" y="900" width="100" height="60" as="geometry"/>
                </mxCell>
            </root>
        </mxGraphModel>
    </diagram>
</mxfile>